<?xml version="1.0" standalone="no"?>
<!DOCTYPE svg PUBLIC "-//W3C//DTD SVG 20010904//EN"
 "http://www.w3.org/TR/2001/REC-SVG-20010904/DTD/svg10.dtd">
<svg version="1.0" xmlns="http://www.w3.org/2000/svg"
 width="238.000000pt" height="250.000000pt" viewBox="0 0 238.000000 250.000000"
 preserveAspectRatio="xMidYMid meet">

<g transform="translate(0.000000,250.000000) scale(0.100000,-0.100000)"
fill="#000000" stroke="none">
<path d="M1338 2111 c2 -28 -1 -58 -8 -71 -8 -15 -8 -20 -1 -16 16 10 14 -1
-6 -32 l-17 -27 24 20 c20 17 22 17 17 3 -4 -13 -2 -15 11 -11 14 6 15 4 5 -8
-7 -9 -9 -20 -3 -29 8 -13 10 -12 15 0 3 8 17 16 31 17 15 0 30 7 35 15 6 8 9
-2 9 -28 0 -27 -11 -64 -33 -108 -19 -36 -31 -66 -28 -66 3 0 18 15 34 33 l29
32 -7 -34 c-11 -55 -71 -126 -129 -154 -65 -32 -160 -43 -198 -23 l-27 14 -41
-83 c-39 -81 -55 -129 -24 -72 28 51 24 23 -10 -79 -19 -54 -33 -100 -31 -102
2 -2 23 33 47 77 23 44 46 81 50 81 3 0 0 -24 -7 -52 -28 -109 -45 -316 -25
-303 5 3 33 78 61 166 28 88 52 159 54 157 1 -2 -1 -25 -5 -53 -5 -27 -9 -66
-8 -85 0 -29 2 -26 10 18 5 28 13 52 16 52 6 0 38 -107 58 -193 15 -65 24 4
19 138 l-6 140 45 -129 c25 -71 48 -131 51 -134 3 -3 3 19 1 49 -3 29 -8 81
-10 115 -3 33 -8 69 -11 80 -3 10 17 -26 44 -80 l49 -99 -4 64 c-9 117 -15
147 -35 173 -11 14 -17 26 -12 26 18 0 72 -66 98 -118 15 -30 28 -52 30 -50 8
8 -18 96 -40 136 -25 44 -24 53 1 27 22 -22 36 -18 29 8 -5 17 2 13 29 -18 21
-24 43 -65 55 -105 24 -76 40 -230 23 -230 -6 0 -12 6 -15 13 -2 6 -8 -5 -12
-26 -9 -47 -25 -58 -25 -17 0 34 -27 100 -41 100 -4 0 -3 -13 2 -29 6 -16 8
-55 6 -87 -2 -45 -5 -53 -11 -36 -11 28 -26 28 -26 0 -1 -23 -1 -23 -15 2 -11
20 -14 21 -15 7 0 -10 -4 -16 -9 -12 -6 3 -13 -16 -17 -42 -7 -46 -7 -47 -22
-25 l-15 23 -17 -38 c-20 -42 -25 -37 -35 40 -8 59 -20 61 -28 4 -8 -56 -25
-100 -36 -93 -5 3 -12 27 -16 53 -11 73 -18 74 -35 4 -8 -36 -20 -66 -26 -68
-6 -2 -19 16 -29 39 l-19 43 -4 -42 c-2 -24 -7 -43 -13 -43 -5 0 -9 6 -9 13 0
7 -7 22 -16 33 -8 10 -12 13 -8 5 5 -9 3 -12 -4 -7 -7 4 -12 16 -12 27 0 30
-18 22 -25 -11 -7 -33 -25 -51 -25 -25 0 9 -4 13 -10 10 -5 -3 -10 3 -10 14 0
12 -5 21 -10 21 -13 0 -30 -42 -21 -52 9 -10 147 -47 220 -59 46 -7 80 -7 120
2 66 13 134 46 126 59 -3 6 1 7 10 4 24 -10 107 82 144 159 33 68 40 132 22
194 -7 22 -6 35 1 39 18 11 48 -35 48 -72 0 -22 8 -41 25 -58 18 -19 25 -36
25 -66 0 -55 -29 -84 -76 -77 -26 4 -34 2 -34 -9 0 -55 -104 -180 -186 -221
-58 -29 -83 -68 -36 -57 15 4 37 19 50 35 21 26 28 28 81 26 44 -1 64 2 78 16
11 9 23 14 28 10 4 -5 5 1 0 12 -24 61 -11 111 30 121 33 8 75 -10 82 -36 5
-18 6 -18 38 3 30 19 32 24 20 37 -16 18 -22 65 -12 96 11 31 47 47 80 35 26
-10 31 -23 30 -84 0 -31 56 32 63 71 9 49 -11 126 -47 178 -29 43 -114 96
-189 119 -14 4 -41 22 -61 40 -40 36 -152 94 -190 99 -13 1 -40 9 -59 18 -19
8 -44 18 -55 22 l-20 7 20 15 c56 41 115 110 129 152 28 81 17 208 -24 261
l-18 25 4 -25 c3 -13 0 -31 -6 -39 -9 -13 -11 -13 -20 0 -5 8 -10 32 -10 52 0
34 -39 98 -59 98 -5 0 -6 -22 -3 -49z m457 -799 c53 -18 70 -47 45 -78 -13
-15 -67 -19 -86 -6 -14 8 -35 82 -28 94 7 10 8 10 69 -10z"/>
<path d="M1456 1684 c-8 -32 -7 -33 26 -27 24 5 26 7 16 29 -15 32 -34 31 -42
-2z"/>
<path d="M952 1580 c-88 -32 -205 -131 -187 -159 3 -6 -5 -15 -17 -21 -22 -11
-22 -10 -4 4 11 9 15 16 9 16 -6 0 -21 -9 -34 -21 -13 -11 -18 -17 -10 -13 9
4 12 3 7 -4 -4 -6 -13 -9 -20 -6 -7 3 -19 -3 -27 -12 -12 -15 -12 -17 0 -9 10
5 12 4 7 -4 -4 -6 -11 -9 -16 -6 -11 7 -94 -60 -143 -114 -44 -49 -57 -78 -57
-130 0 -60 79 -167 105 -143 5 4 5 2 1 -5 -4 -7 2 -16 12 -22 17 -9 19 -7 16
14 l-2 25 45 -25 44 -25 -6 22 c-18 59 12 108 66 108 31 0 69 -40 69 -72 0
-24 -18 -59 -39 -75 -14 -10 -12 -13 14 -23 17 -6 44 -14 60 -17 17 -3 37 -9
45 -13 23 -12 21 107 -2 140 -30 41 -20 53 13 15 17 -19 35 -35 39 -35 4 0 10
23 12 50 1 28 2 50 0 50 -1 0 -7 -11 -12 -25 l-10 -25 -20 20 c-15 15 -20 33
-20 72 0 40 -3 49 -12 40 -7 -7 -16 -12 -20 -12 -11 0 0 64 19 107 18 44 17
64 -3 56 -13 -5 -15 -2 -9 18 15 50 101 202 136 240 41 45 32 48 -49 19z
m-139 -281 c23 -10 25 -15 20 -68 -3 -31 0 -74 5 -95 14 -48 6 -64 -18 -36
-10 12 -24 18 -33 14 -23 -8 -55 12 -73 47 -13 26 -14 39 -4 79 15 62 51 83
103 59z m-190 -127 c34 -37 41 -80 22 -123 -10 -21 -24 -39 -32 -39 -7 0 -13
-6 -14 -12 0 -7 -4 -4 -9 7 -5 11 -9 57 -9 103 -1 87 8 101 42 64z"/>
<path d="M1682 862 c-98 -86 -305 -162 -442 -162 -117 0 -340 50 -432 97 -39
19 -35 5 16 -64 121 -164 346 -241 550 -188 153 40 285 160 351 318 8 20 12
37 8 37 -5 -1 -27 -18 -51 -38z"/>
<path d="M1023 831 c-11 -17 -8 -21 20 -31 18 -6 61 -14 97 -17 61 -6 64 -5
51 11 -10 12 -25 16 -43 14 -15 -3 -26 -2 -23 1 4 3 -77 40 -90 41 0 0 -6 -9
-12 -19z"/>
<path d="M1201 411 c-15 -10 -4 -38 23 -61 14 -11 16 -9 16 13 0 29 -9 57 -19
57 -3 0 -12 -4 -20 -9z"/>
</g>
</svg>
